<svg xmlns="http://www.w3.org/2000/svg" width="16.581" height="18.998" viewBox="0 0 16.581 18.998">
  <g id="noun-present-1070146" transform="translate(-203.278 -112.74)">
    <path id="Path_228" data-name="Path 228" d="M219.829,128.06c-.048-.9-.143-1.791-.206-2.648-.016-.222-.032-.412-.032-.587s0-.333.016-.507c.016-.111.048-.238.063-.349a8.384,8.384,0,0,0,.063-1.427l-.016-.111c.048-.7.1-1.4.111-2.108a12.343,12.343,0,0,0-.19-2.727l-.079-.349-.079-.317-.048-.174c-.016-.063-.032-.1-.063-.222a1.256,1.256,0,0,0-.317-.523.927.927,0,0,0-.571-.238,1.194,1.194,0,0,0-.238-.016,1.62,1.62,0,0,0,.222-.793.9.9,0,0,0-.27-.714.49.49,0,0,0-.491-.111.747.747,0,0,0-.365.333.882.882,0,0,0-.127.412.548.548,0,0,1-.111.317.852.852,0,0,1-.333.27,3.347,3.347,0,0,1-1.126.317q-.547.071-1.141.1a8.346,8.346,0,0,0,1.284-.872c.048-.032-.048-.3-.111-.3a9.382,9.382,0,0,0-1.792.222,10.206,10.206,0,0,1,.777-.666,4.382,4.382,0,0,1,1.506-.856,1.1,1.1,0,0,1,.745.063,1.436,1.436,0,0,1,.587.6.161.161,0,0,0,.206.063.159.159,0,0,0,.079-.206,1.822,1.822,0,0,0-.6-.888,1.623,1.623,0,0,0-1.11-.3,3.618,3.618,0,0,0-1.046.27,7.2,7.2,0,0,0-.919.476,11.988,11.988,0,0,0-1.6,1.189l-.19.159-.206.19-.634.587-.634-.587-.206-.19-.19-.159a13.094,13.094,0,0,0-1.6-1.189,5.584,5.584,0,0,0-.919-.476,3.633,3.633,0,0,0-1.046-.27,1.669,1.669,0,0,0-1.11.3,1.822,1.822,0,0,0-.6.888.166.166,0,0,0,.079.206.16.16,0,0,0,.206-.063,1.535,1.535,0,0,1,.587-.6,1.081,1.081,0,0,1,.745-.063,4.139,4.139,0,0,1,1.506.856c.27.206.523.444.777.666a7.394,7.394,0,0,0-1.791-.222c-.063,0-.159.254-.111.3a9.633,9.633,0,0,0,1.284.872,8.751,8.751,0,0,1-1.141-.1,3.63,3.63,0,0,1-1.126-.317.982.982,0,0,1-.333-.27.629.629,0,0,1-.111-.317.883.883,0,0,0-.127-.412.629.629,0,0,0-.365-.333.489.489,0,0,0-.491.111.9.9,0,0,0-.27.714,1.846,1.846,0,0,0,.349.983l.032.032c-.539.111-.872.27-.872.444-.079,0-.143.19-.159.555-.032,1.569-.079,3.123-.111,4.693a1.7,1.7,0,0,0-.206.3,1.065,1.065,0,0,0-.111.285,1.67,1.67,0,0,0-.063.27,4.8,4.8,0,0,0-.063.935,3.963,3.963,0,0,0,.254,1.332c.032.079.079.159.111.222l-.016.919-.016.888-.016.444a3.646,3.646,0,0,1-.032.412c-.063.587-.159,1.189-.174,1.823,0,.159,0,.333.016.507a2.3,2.3,0,0,0,.143.571,1.044,1.044,0,0,0,.222.317,2.848,2.848,0,0,0,.254.206,2.432,2.432,0,0,0,.507.238,8.131,8.131,0,0,0,1.887.333c.618.048,1.221.063,1.823.063,1.2,0,2.41-.048,3.615-.111l1.791-.1.888-.048a7.379,7.379,0,0,1,.84,0c.571.032,1.189.1,1.807.127a6.569,6.569,0,0,0,.967-.016,3.416,3.416,0,0,0,.539-.079,2.02,2.02,0,0,0,.333-.111l.111-.048.079-.063.174-.143.1-.127.079-.143a.569.569,0,0,0,.063-.143c.016-.032.032-.079.048-.111a2.189,2.189,0,0,0,.1-.412c.032-.254.048-.491.063-.729a8.541,8.541,0,0,0,0-1.427Zm-4.36,2.188a9.322,9.322,0,0,0-.951.016l-.9.063-.238.016c.063-1.522.127-3.06.174-4.6h.063l.666.016c.19,0,.4.032.618.048a24.387,24.387,0,0,0,2.7.222,4.094,4.094,0,0,0,.745-.048l.1-.016c.063.714.127,1.427.174,2.124a11.388,11.388,0,0,1,.032,1.268,3.388,3.388,0,0,1-.048.587c-.016.1-.032.174-.048.238,0,.016-.016.032-.016.048a.168.168,0,0,0-.079.032,2.055,2.055,0,0,1-.349.048c-.254.016-.539.016-.824.016C216.674,130.343,216.1,130.28,215.469,130.248Zm-8.957.38a6.775,6.775,0,0,1-1.649-.238.815.815,0,0,1-.46-.254.891.891,0,0,1-.079-.285,3.073,3.073,0,0,1-.032-.4c-.016-.555.063-1.141.1-1.744a4.588,4.588,0,0,0,.016-.476l-.016-.444-.016-.888-.016-.46,4.772.19v.38c0,.46-.063,1-.111,1.522-.048.539-.1,1.062-.111,1.633a8.183,8.183,0,0,0,.032.872,1.236,1.236,0,0,0,.032.238l.016.127.048.143.032.1c-.27.016-.555.016-.824.032-.554-.015-1.141-.015-1.728-.047Zm-2.33-13.666a1.108,1.108,0,0,0-.048-.38,6.283,6.283,0,0,0,2.869.46h.3a13.16,13.16,0,0,0,1.332.1h.38v.079c0,.3,0,.587.016.872s.032.555.063.824l.032.412c.016.127.016.27.032.365v1.664c-.475,0-.983-.063-1.522-.111s-1.094-.1-1.649-.111c-.285,0-.571,0-.872.016a2.864,2.864,0,0,0-.809.174c-.047-1.474-.095-2.917-.127-4.359Zm14.157,7.752a.314.314,0,0,1-.032.111v.016a.016.016,0,0,1-.016.016h-.016l-.127.016a3.334,3.334,0,0,1-.571.048c-.824.016-1.712-.063-2.584-.127-.222-.016-.444-.032-.7-.032l-.666.016H213.6c.016-.428.032-.84.048-1.268l.032-.951h1.792a1.119,1.119,0,0,0,.238-.016l1.332-.111a11.313,11.313,0,0,1,1.252-.048l.222.016v.032l.016.127a7.82,7.82,0,0,1-.032,1.2c-.016.206-.048.412-.079.618a1.887,1.887,0,0,0-.08.332Zm-5.3,5.786a.2.2,0,0,0,.016.1.9.9,0,0,0-.412-.174,4.45,4.45,0,0,0-1.268-.111c-.254,0-.491,0-.714-.016q-.167-.024-.285-.048l-.1-.032-.032-.1-.016-.079c0-.048-.016-.1-.016-.159a5.156,5.156,0,0,1-.032-.714c0-.491.048-1.015.1-1.538s.127-1.03.127-1.633v-6.357a3.967,3.967,0,0,0-.032-.46l-.032-.412-.063-.793c-.016-.27-.032-.523-.032-.777v-.174l.016-.127a2.679,2.679,0,0,1,.38-.016c.27,0,.555,0,.84.016s.571.032.84.063c.143.016.27.032.4.048h.048a.016.016,0,0,0,.016.016v.016l.016.063c.016.048.016.111.032.174,0,.063.016.127.016.19.016.254.016.539.016.824-.016.555-.063,1.141-.111,1.712l-.032.444c0,.079-.016.143-.016.238v.238l.016.872.048,1.744c.079,2.315.174,4.629.269,6.96Zm-8.608-5.8a4.568,4.568,0,0,0,.111-1.284,4.312,4.312,0,0,1,.048-.682.3.3,0,0,1,.032-.127c.016-.048.032-.063.032-.1.032-.048,0-.016.016-.032a1.758,1.758,0,0,1,.523-.111c.238-.016.476-.016.729-.016.507.016,1.03.063,1.569.111l.809.079c.143.016.285.016.428.032h.412v2.346c-1.6.048-3.187.111-4.788.19-.048,0-.079.016-.111.016a.766.766,0,0,0,.191-.428Zm13.983-6.88a11.143,11.143,0,0,1,.174,2.441q0,.476-.048.951h-.032c-.063,0-.127-.016-.19-.016a13.352,13.352,0,0,0-1.4.032l-1.316.111h-1.918l.016-.412c0-.254.048-.523.079-.824.063-.571.143-1.157.174-1.76a8.845,8.845,0,0,0,.016-.919c0-.079-.016-.159-.016-.254v-.048h.412a10.072,10.072,0,0,0,1.379-.1H217.4c.222,0,.46-.016.666-.032h.143l.063.238.079.317Z" transform="translate(0 0)" fill="#023527"/>
  </g>
</svg>
