<?xml version="1.0" encoding="UTF-8"?><svg xmlns="http://www.w3.org/2000/svg" width="33.456" height="21.849" viewBox="0 0 32.62 22.57"><defs><style>.d{fill:#cec9c9;}</style></defs><g id="a"/><g id="b"><g id="c"><g><path class="d" d="M5.52,21.93c.41,.41,.96,.64,1.54,.64H30.45c.58,0,1.13-.23,1.54-.64,.41-.41,.64-.96,.64-1.54V6.91c0-.58-.23-1.13-.64-1.54-.41-.41-.96-.64-1.54-.64h-2.71V2.18c0-.57-.23-1.13-.64-1.54-.41-.41-.96-.64-1.54-.64H2.18C1.59,0,1.05,.23,.64,.64c-.41,.41-.64,.96-.64,1.54V15.66c0,.58,.23,1.13,.64,1.54,.41,.41,.96,.64,1.54,.64h2.71v2.56c0,.57,.23,1.13,.64,1.54Zm1.54-.8c-.41,0-.74-.33-.74-.74v-1.83l.51,.19c.86,.33,1.57,1,1.94,1.85l.23,.53h-1.93Zm24.13-.74c0,.2-.08,.38-.22,.52-.14,.14-.33,.22-.52,.22h-1.93l.23-.52c.37-.85,1.07-1.53,1.94-1.86l.51-.19v1.83Zm-.74-14.22c.19,0,.38,.08,.52,.22,.14,.14,.22,.33,.22,.52h0v1.95l-.51-.2c-.91-.35-1.63-1.07-1.98-1.98l-.2-.51h1.95Zm-2.71,9.48v-7.52l.65,.68c.68,.71,1.54,1.19,2.5,1.4l.3,.06v6.86l-.3,.06c-.91,.2-1.73,.64-2.39,1.28s-1.12,1.46-1.34,2.36l-.36-.09v.37H10.41l-.07-.29c-.22-.9-.69-1.72-1.35-2.37l-.67-.64H25.56c.58,0,1.13-.23,1.54-.64,.41-.41,.64-.96,.64-1.54Zm-4.11,.74l.23-.53c.37-.85,1.08-1.52,1.94-1.85l.51-.19v1.83c0,.2-.08,.38-.22,.52-.14,.14-.33,.22-.52,.22h-1.93Zm1.93-14.96c.19,0,.38,.08,.52,.22,.14,.14,.21,.32,.22,.52v1.95l-.51-.19c-.91-.35-1.63-1.07-1.99-1.97l-.2-.51h1.95ZM1.44,2.18c0-.41,.33-.74,.74-.74h1.95l-.2,.51c-.35,.91-1.07,1.63-1.98,1.98l-.51,.2v-1.95Zm.74,14.22c-.41,0-.74-.33-.74-.74v-1.83l.51,.19c.86,.33,1.57,1,1.94,1.85l.23,.53h-1.93Zm1.95-2.65c-.66-.65-1.49-1.09-2.39-1.28l-.3-.06V5.54l.3-.06c.92-.2,1.76-.65,2.43-1.32,.67-.67,1.13-1.51,1.33-2.43l.06-.3H22.19l.06,.3c.2,.92,.66,1.76,1.32,2.43,.67,.67,1.51,1.12,2.43,1.32l.3,.06v6.85l-.3,.06c-.9,.2-1.73,.64-2.39,1.28-.66,.64-1.12,1.46-1.34,2.36l-.07,.29H5.53l-.07-.29c-.22-.9-.68-1.72-1.34-2.36Z"/><path class="d" d="M13.87,4.43c-1.19,0-2.33,.47-3.18,1.31-.84,.84-1.32,1.98-1.32,3.17,0,1.19,.47,2.33,1.31,3.17,.84,.84,1.98,1.32,3.17,1.32,1.19,0,2.33-.47,3.17-1.31,.84-.84,1.31-1.98,1.31-3.17,0-1.19-.47-2.33-1.31-3.17-.84-.84-1.98-1.31-3.17-1.32h0Zm0,7.42c-.78,0-1.53-.31-2.08-.86-.55-.55-.86-1.3-.86-2.08s.31-1.53,.86-2.08c.55-.55,1.3-.86,2.08-.86s1.53,.31,2.08,.86c.55,.55,.86,1.3,.86,2.08s-.31,1.53-.86,2.08c-.55,.55-1.3,.86-2.08,.86h0Z"/></g></g></g></svg>
