<?xml version="1.0" encoding="UTF-8" standalone="no"?>
<svg
    version="1.1"
    id="Layer_1"
    x="0px"
    y="0px"
    viewBox="0 0 449.89999 160.8"
    xml:space="preserve"
    width="449.89999"
    height="160.8"
    xmlns="http://www.w3.org/2000/svg"
    xmlns:svg="http://www.w3.org/2000/svg"><defs
   id="defs43" />
    <style
        type="text/css"
        id="style2">
	.st0{fill:#EE7623;}
	.st1{fill:#9D9D9C;}
</style>
    <g
        id="g38"
        transform="translate(-31,-175.7)">
	<path
        class="st0"
        d="m 457.9,233.5 -9.6,26.4 c -1.7,4.5 -6.6,8.2 -11.1,8.2 h -16 c 1.7,-2.6 3,-5.4 4.1,-8.2 l 9.6,-26.3 h -23.1 l -9.6,26.3 c -1.7,4.5 -6.6,8.2 -11.2,8.2 h -7.7 -8.3 c 1.7,-2.6 3,-5.4 4.1,-8.2 l 9.6,-26.4 h -23.1 l -9.6,26.4 c -1.7,4.5 -6.6,8.2 -11.2,8.2 h -73.7 c 1.7,-2.6 3.1,-5.2 4.1,-8.1 l 2.4,-6.8 C 284,236 275,222 257.8,222 h -26.3 l -8.4,23.1 h 26.3 c 4.5,0 6.9,3.7 5.2,8.2 l -2.6,6.8 c -1.7,4.5 -6.6,8.1 -11.1,8.1 H 203 l -8.4,23.1 h 234.2 c 17.3,0 36.2,-13.9 42.4,-31.1 l 9.7,-26.5 h -23 z"
        id="path4"/>
        <path
            class="st1"
            d="m 213,175.7 h -23 c -10.9,30.2 -29.2,80.2 -39.2,107.8 -1,2.6 -2.2,5.1 -3.8,7.6 h 1 c 0,0 0,0 0,0 h 14.9 c 4,0 8.2,-2.7 10.3,-6.5 0.3,-0.6 0.6,-1.2 0.9,-1.8 l 9.6,-26.3 v 0 c 12,-32.8 28.1,-77.2 29.3,-80.8"
            id="path6"/>
        <path
            class="st0"
            d="M 92,291.2 H 31 l 8.4,-23.1 h 61 c 4.5,0 9.6,-3.7 11.2,-8.2 l 2.4,-6.6 c 1.7,-4.5 -0.7,-8.2 -5.2,-8.2 H 70.9 L 79.3,222 h 37.8 c 17.3,0 26.2,14 19.9,31.3 l -2.4,6.6 c -6.2,17.3 -25.4,31.3 -42.6,31.3"
            id="path8"/>
        <polygon
            class="st1"
            points="190.7,320.2 193.5,320.2 194.6,317.3 191.8,317.3 "
            id="polygon10"/>
        <path
            class="st1"
            d="m 200.6,325.9 c -0.5,1.3 -1.2,2.2 -2.1,2.7 -0.6,0.3 -1.6,0.5 -2.9,0.5 h -7.1 c -1.6,0 -2.7,-0.3 -3.3,-0.8 -0.7,-0.7 -0.8,-1.9 -0.2,-3.6 l 1.6,-4.4 h -2.9 l -1.6,4.4 c -1.8,4.9 0.1,7.4 5.6,7.4 h 9.4 c 2.6,0 4.6,-1.6 5.5,-4.2 l 2.8,-7.6 h -2.9 z"
            id="path12"/>
        <polygon
            class="st1"
            points="195.6,320.2 198.5,320.2 199.5,317.3 196.7,317.3 "
            id="polygon14"/>
        <path
            class="st1"
            d="m 219,326.3 c 0.4,-1 0.9,-1.8 1.6,-2.5 0.8,-0.8 1.7,-1.1 2.6,-1.1 1.4,0 2,0.7 2,2 l 2.9,-1.2 c -0.1,-2.1 -1.6,-3.4 -3.9,-3.4 -1.7,0 -3.4,0.6 -5,1.8 -1.6,1.2 -2.7,2.7 -3.3,4.4 -0.4,1 -0.5,1.9 -0.4,2.7 h -3 -0.8 -0.9 c -1.1,0 -1.8,-0.2 -2.1,-0.4 -0.4,-0.4 -0.4,-1.2 0.1,-2.5 l 4,-10.9 H 210 l -4.4,12 c -0.5,1.4 -0.6,2.5 -0.2,3.4 0.4,0.9 1.3,1.4 2.7,1.4 h 2.6 0.8 13.6 l 1.1,-3 h -7.3 c -0.4,-0.6 -0.3,-1.6 0.1,-2.7"
            id="path16"/>
        <polygon
            class="st1"
            points="254.8,317.8 257.6,317.8 258.7,314.9 255.9,314.9 "
            id="polygon18"/>
        <path
            class="st1"
            d="m 255.4,320 c -3.5,0 -6.8,2.5 -8.1,6 -0.4,1.1 -0.5,2.2 -0.4,3.1 h -3.5 -0.6 -3 l 1.1,-3 c 1.2,-3.4 -0.1,-5.8 -3.3,-5.8 -3.3,0 -6.7,2.3 -7.9,5.8 -1.3,3.4 0.3,6.1 3.5,6.1 h 2.8 c -0.9,1.4 -2.1,2 -3.6,2 l -0.8,2.3 c 3.4,0 5.8,-1.4 7.2,-4.3 h 2.9 0.6 8.7 c 3.5,0 6.7,-2.5 8,-6 1.3,-3.6 -0.1,-6.2 -3.6,-6.2 m -18.4,9.1 h -2.6 c -1.6,0 -2.2,-1.5 -1.6,-3.2 0.6,-1.7 2.2,-2.9 3.9,-2.9 1.5,0 2,1.1 1.6,2.6 z m 15.1,0.2 c -1.7,0 -2.4,-1.5 -1.7,-3.4 0.7,-2 2.3,-3.3 4,-3.3 1.7,0 2.4,1.5 1.7,3.4 -0.8,2 -2.4,3.3 -4,3.3"
            id="path20"/>
        <path
            class="st1"
            d="m 308.8,326.3 c -0.3,0.9 -0.6,1.6 -0.9,1.9 -0.5,0.6 -1.2,0.9 -2.2,0.9 h -1.7 -0.7 -4.1 c 0.6,-0.5 1.2,-1.5 1.7,-3 l 3.9,-10.8 h -2.9 l -4,10.9 c -0.3,0.9 -0.7,1.6 -1,2 -0.5,0.6 -1.2,0.9 -2.1,0.9 h -1.8 -0.8 -1.7 l 0.3,-0.8 c 0.6,-1.7 0.6,-3.2 0,-4.3 -0.6,-1.2 -1.8,-1.7 -3.6,-1.7 -1.7,0 -3.4,0.6 -4.9,1.7 -1.5,1.1 -2.5,2.5 -3.2,4.3 -0.1,0.3 -0.2,0.6 -0.3,0.9 h -1.5 -1.3 -3.2 c 1.6,-4.4 0.9,-7.2 -2.2,-8.4 -0.6,-0.2 -1.1,-0.3 -1.4,-0.4 -0.4,0 -1.3,-0.1 -2.7,-0.1 l -1,2.6 c 0.9,0 1.8,0.1 2.5,0.2 2.4,0.6 3,2.5 1.8,5.9 h -9.4 l -1.1,3 h 15.6 1.3 2.7 c 0.6,1.5 1.8,2.3 3.8,2.3 2,0 3.9,-0.8 5.5,-2.3 h 2.9 0.8 10.3 0.7 2.3 c 2.9,0 4.9,-1.6 6.1,-4.7 l 4.4,-12 h -2.9 z m -22.7,4.3 c -0.7,0.6 -1.6,1 -2.4,1 -1.8,0 -2.4,-1.5 -1.7,-3.4 0.3,-0.9 0.9,-1.7 1.5,-2.3 0.8,-0.7 1.6,-1 2.5,-1 0.9,0 1.5,0.4 1.8,1.1 0.2,0.6 0.2,1.5 -0.2,2.4 -0.3,0.8 -0.8,1.6 -1.5,2.2"
            id="path22"/>
        <path
            class="st1"
            d="m 329.5,320.6 c -0.6,-0.2 -1.1,-0.3 -1.4,-0.4 -0.4,0 -1.3,-0.1 -2.7,-0.1 l -1,2.6 c 0.9,0 1.8,0.1 2.5,0.2 2.4,0.6 3,2.5 1.8,5.9 h -9.4 l -1.1,3 h 12.3 l 1.1,-3 c 1.7,-4.2 1,-7 -2.1,-8.2"
            id="path24"/>
        <polygon
            class="st1"
            points="342.3,315.2 339.4,315.2 333.3,332 336.2,332 "
            id="polygon26"/>
        <path
            class="st1"
            d="m 375.5,326.2 c -0.7,1.9 -1.8,2.9 -3.3,2.9 h -2.8 c 0.5,-0.4 1.1,-1.5 1.8,-3.2 l 2.1,-5.7 h -2.9 l -2.2,5.9 c -0.7,1.9 -1.8,2.9 -3.3,2.9 h -2.7 l 0.1,-0.2 c 0.5,-0.5 1,-1.5 1.6,-3 l 2.1,-5.7 h -3 l -2.1,5.8 c -0.7,2.1 -1.8,3.1 -3.3,3.1 h -1 -1.2 -3.4 c 1.6,-4.4 0.9,-7.2 -2.2,-8.4 -0.6,-0.2 -1.1,-0.3 -1.4,-0.4 -0.4,0 -1.3,-0.1 -2.7,-0.1 l -1,2.6 c 0.9,0 1.8,0.1 2.5,0.2 2.4,0.6 3,2.5 1.8,5.9 h -9.4 l -1.1,3 h 15.7 1.2 15.8 c 3,0 5.9,-2.4 7.3,-6.2 l 2.1,-5.6 h -2.9 z"
            id="path28"/>
        <path
            class="st1"
            d="m 402.1,320.2 h -7.3 c -3.8,0 -7.1,2.8 -8.6,6.9 l -3.4,9.2 h 2.9 l 3.2,-8.6 c 1,-2.8 2.9,-4.5 4.9,-4.5 h 2.1 c -0.8,0.9 -1.4,1.9 -1.8,3.1 -1.2,3.4 0.2,6.1 3.7,6.1 3.4,0 6.8,-2.6 8,-6 1.1,-3.5 -0.2,-6.2 -3.7,-6.2 m -3.4,9.4 c -1.7,0 -2.4,-1.5 -1.7,-3.4 0.7,-1.9 2.2,-3.3 4,-3.3 1.8,0 2.4,1.5 1.7,3.4 -0.7,1.9 -2.3,3.3 -4,3.3"
            id="path30"/>
        <polygon
            class="st1"
            points="431.7,317.8 434.5,317.8 435.6,315 432.8,315 "
            id="polygon32"/>
        <polygon
            class="st1"
            points="447,317.8 449.9,317.8 450.9,315 448.1,315 "
            id="polygon34"/>
        <path
            class="st1"
            d="m 446.1,320.2 -2.2,6.1 c -0.3,0.9 -0.6,1.6 -0.9,1.9 -0.5,0.6 -1.2,0.9 -2.2,0.9 h -1.5 -1 -2.2 c 2.1,-5.9 0.9,-8.9 -3.5,-8.9 -2.8,0 -5.8,1.4 -9.3,4.5 l 3.8,-9.4 h -2.9 l -5,13.8 h -4.2 -1 -0.7 c -1.1,0 -1.8,-0.2 -2.1,-0.4 -0.4,-0.4 -0.4,-1.2 0.1,-2.5 l 4,-10.9 h -2.9 l -4.4,12 c -0.5,1.4 -0.6,2.5 -0.2,3.4 0.4,0.9 1.3,1.4 2.7,1.4 h 2.3 1.1 23.3 1 2.1 c 2.9,0 4.9,-1.6 6.1,-4.7 l 2.6,-7.1 z m -12.9,8.9 h -11.6 c 3,-3.6 7,-6.3 9.9,-6.3 2.5,0 3.2,2.1 2,5.5 -0.1,0.2 -0.2,0.5 -0.3,0.8"
            id="path36"/>
</g>
</svg>
