<?xml version="1.0" standalone="no"?>
<!DOCTYPE svg PUBLIC "-//W3C//DTD SVG 20010904//EN"
 "http://www.w3.org/TR/2001/REC-SVG-20010904/DTD/svg10.dtd">
<svg version="1.0" xmlns="http://www.w3.org/2000/svg"
 width="320.000000pt" height="320.000000pt" viewBox="0 0 320.000000 320.000000"
 preserveAspectRatio="xMidYMid meet">
<metadata>
Created by potrace 1.14, written by Peter Selinger 2001-2017
</metadata>
<g transform="translate(0.000000,320.000000) scale(0.100000,-0.100000)"
fill="#000000" stroke="none">
<path d="M87 2093 c-9 -15 -75 -188 -79 -206 -2 -13 7 -23 29 -32 29 -12 33
-12 38 4 7 24 90 107 134 136 80 52 188 61 209 17 5 -9 8 -190 8 -402 -1 -341
-3 -388 -18 -408 -17 -25 -77 -51 -119 -52 -24 0 -63 -28 -43 -31 30 -4 574
-3 574 1 0 8 -20 36 -20 29 0 -8 -76 8 -112 24 -50 21 -51 29 -50 424 0 202 1
380 1 395 2 59 97 66 197 17 49 -25 150 -120 159 -150 4 -13 -3 -30 -19 -50
-47 -55 -44 -114 6 -152 56 -42 138 -24 163 36 11 28 11 38 -7 84 -15 40 -17
57 -8 72 18 34 67 54 122 49 58 -6 92 -33 120 -96 24 -53 34 -191 15 -197 -6
-2 -50 -15 -97 -30 -233 -73 -343 -167 -344 -293 0 -101 69 -173 172 -180 75
-5 130 19 207 92 l60 56 13 -37 c13 -40 36 -68 67 -86 23 -13 805 -18 805 -6
0 12 -18 21 -53 25 -76 11 -130 28 -158 51 l-29 25 0 152 c0 136 3 160 25 226
30 88 66 151 101 179 37 29 46 26 69 -21 26 -54 64 -82 114 -82 58 0 83 18
125 90 47 79 84 111 140 119 81 13 146 -29 173 -110 6 -16 10 -59 9 -95 l-1
-64 -75 -26 c-41 -14 -80 -27 -85 -29 -6 -2 -21 -8 -35 -13 -103 -38 -200
-111 -234 -177 -51 -98 2 -233 103 -261 92 -25 162 -2 259 86 l61 55 11 -40
c10 -37 57 -89 83 -92 7 -1 81 -3 165 -4 111 -1 152 2 152 11 0 6 -27 17 -60
23 -47 9 -69 20 -100 50 -49 46 -48 43 -35 352 8 197 -1 263 -46 314 -45 51
-102 68 -222 68 -110 -1 -162 -14 -230 -59 l-38 -25 -21 26 c-40 51 -108 66
-189 42 -87 -27 -157 -103 -199 -218 l-20 -54 2 138 c1 75 -1 139 -3 141 -5 5
-286 -77 -295 -87 -6 -6 3 -8 31 -7 23 1 63 -34 71 -62 8 -26 12 -395 5 -521
0 -16 -15 -43 -35 -64 -30 -33 -39 -37 -85 -37 -42 0 -56 4 -77 25 -38 39 -43
81 -38 327 6 257 -2 315 -47 367 -44 50 -103 68 -217 68 -86 0 -186 -18 -262
-47 -12 -5 -24 19 -55 104 l-40 110 -447 0 c-246 0 -449 -3 -451 -7z m1306
-655 c-5 -135 -12 -154 -73 -195 -83 -57 -170 1 -170 114 0 81 62 145 175 182
33 11 63 20 66 20 4 1 4 -54 2 -121z m1393 70 c-3 -29 -5 -86 -5 -127 l-1 -74
-45 -44 c-38 -36 -52 -43 -86 -43 -73 0 -121 77 -104 166 9 50 31 81 79 112
35 22 133 60 159 61 4 1 5 -23 3 -51z"/>
</g>
</svg>
