<?xml version="1.0" encoding="UTF-8" standalone="no"?>
<svg
   width="42.915417mm"
   height="17.700624mm"
   viewBox="0 0 42.915417 17.700624"
   version="1.1"
   id="svg5"
   xmlns="http://www.w3.org/2000/svg"
   xmlns:svg="http://www.w3.org/2000/svg">
  <defs
     id="defs2" />
  <g
     id="layer1"
     transform="translate(-82.703429,-105.16391)">
    <g
       id="g29"
       transform="matrix(0.26458333,0,0,0.26458333,76.115304,85.955156)">
      <path
         class="st0"
         d="M 166.2,139.5 H 45.8 c -11.6,0 -20.9,-9.4 -20.9,-20.9 V 93.5 c 0,-11.6 9.4,-20.9 20.9,-20.9 h 120.4 c 11.6,0 20.9,9.4 20.9,20.9 v 25.1 c 0,11.5 -9.3,20.9 -20.9,20.9 z"
         id="path11" />
      <g
         id="g17">
	<path
   class="st1"
   d="m 157.9,94.1 -8.3,31.7 v 0.1 h 6.5 l 8.3,-31.7 h -6.5 z m -102.6,18 c -1,0.5 -2,0.7 -3.1,0.7 -2.3,0 -3.6,-0.4 -3.8,-2.3 v -0.1 c 0,-0.1 0,-0.1 0,-0.2 v -5.5 -0.6 -3.9 0 V 98.6 98 94.3 L 42.6,95 c 3.9,-0.8 6.1,-3.8 6.1,-6.9 v -1.9 h -6.5 v 8.9 l -0.4,0.1 v 16.4 c 0.2,4.6 3.3,7.4 8.2,7.4 1.8,0 3.7,-0.4 5.2,-1.1 v 0 z"
   id="path13" />

	<path
   class="st1"
   d="m 56.3,92.9 -18.2,2.8 v 4.6 l 18.2,-2.8 c 0,0 0,-4.6 0,-4.6 z m 0,6.8 -18.2,2.8 v 4.4 l 18.2,-2.8 c 0,0 0,-4.4 0,-4.4 z m 20.4,2.1 c -0.3,-5.1 -3.5,-8.2 -8.7,-8.2 -3,0 -5.5,1.2 -7.2,3.4 -1.7,2.2 -2.6,5.4 -2.6,9.3 0,3.9 0.9,7.1 2.6,9.3 1.7,2.2 4.2,3.3 7.2,3.3 5.2,0 8.4,-3 8.7,-8.2 v 7.7 h 6.5 V 94.2 l -6.5,1 z m 0.4,4.5 c 0,4.5 -2.4,7.5 -6.1,7.5 -3.8,0 -6.1,-2.8 -6.1,-7.5 0,-4.7 2.3,-7.5 6.1,-7.5 1.8,0 3.4,0.7 4.5,2.1 1,1.3 1.6,3.2 1.6,5.4 0,0 0,0 0,0 z m 25,-12.7 c -5.2,0 -8.4,3 -8.7,8.2 V 87.1 l -6.5,1 v 30.3 h 6.5 v -7.7 c 0.3,5.2 3.5,8.2 8.7,8.2 6.1,0 9.8,-4.7 9.8,-12.6 0,-7.9 -3.7,-12.7 -9.8,-12.7 z m -2.9,20.2 c -3.7,0 -6.1,-2.9 -6.1,-7.5 0,-2.2 0.6,-4.1 1.6,-5.4 1.1,-1.4 2.6,-2.1 4.5,-2.1 3.8,0 6.1,2.8 6.1,7.5 0,4.7 -2.3,7.5 -6.1,7.5 z m 30.3,-20.2 c -5.2,0 -8.4,3 -8.7,8.2 V 87.1 l -6.5,1 v 30.3 h 6.5 v -7.7 c 0.3,5.2 3.5,8.2 8.7,8.2 6.1,0 9.8,-4.7 9.8,-12.6 0,-7.9 -3.7,-12.7 -9.8,-12.7 z m -2.9,20.2 c -3.7,0 -6.1,-2.9 -6.1,-7.5 0,-2.2 0.6,-4.1 1.6,-5.4 1.1,-1.4 2.6,-2.1 4.5,-2.1 3.8,0 6.1,2.8 6.1,7.5 0,4.7 -2.3,7.5 -6.1,7.5 z m 12.7,-19.7 h 6.9 l 5.6,24.3 h -6.2 c 0,0 -6.3,-24.3 -6.3,-24.3 z m 30.4,2.5 v -1.9 h -0.8 v -0.4 h 2.1 v 0.4 h -0.8 v 1.9 z m 1.4,0 v -2.4 h 0.8 l 0.4,1.1 c 0.1,0.3 0.2,0.4 0.2,0.5 0,-0.1 0.1,-0.2 0.2,-0.5 l 0.4,-1.1 h 0.8 v 2.4 h -0.5 v -1.9 l -0.7,1.9 h -0.5 l -0.6,-1.9 v 1.9 z"
   id="path15" />

</g>
    </g>
  </g>
  <style
     type="text/css"
     id="style9">
	.st0{fill:#5AFEAE;}
	.st1{fill:#292929;}
</style>
</svg>
