<?xml version="1.0" encoding="utf-8"?>
<!-- Generator: Adobe Illustrator 25.4.1, SVG Export Plug-In . SVG Version: 6.00 Build 0)  -->
<svg version="1.1" id="Layer_1" xmlns="http://www.w3.org/2000/svg" xmlns:xlink="http://www.w3.org/1999/xlink" x="0px" y="0px"
	 viewBox="0 0 396.9 124" style="enable-background:new 0 0 396.9 124;" xml:space="preserve">
<style type="text/css">
	.st0{fill:#FD3C1D;}
</style>
<path class="st0" d="M396.9,121.8l-2.2-3.3c-5.3,0-24.5-2.1-24.5-19.8l0.7-17.7l1.2-25.2c1.2-25.9-7.8-35.5-32.8-35.5
	c-14,0-22.7,1.5-34.5,11.5c-2.3-6.8-8.9-10.8-16.8-10.8c-15.7,0-29,10.6-36.2,36.2h-0.2c0-1.8-0.1-2.9-0.1-2.9l0.7-33.3l-37.8,11
	l-0.2,0.9l5.3,1.2c7.8,1.8,9.4,3.9,9.4,18.1V101c0,10-6.3,17.5-15.6,17.5c-5.3,0-14.9-2.1-14.9-19.8l1.1-42.9
	c1.2-25.9-7.8-35.5-32.8-35.5c-10.7,0-24.2,2.3-34.5,7.2L121.9,0H10.5L0,27.9l7.5,4C17.6,15,32,6.8,44,6.8c3.6,0,8.6,2.2,8.6,5.6v93
	c0,10-11.5,11.9-21.5,12.9l-2.3,3.4h73.8l-2.2-3.3c-10.1-1-21.5-3-21.5-12.9v-93c0-3.4,5.2-5.6,8.6-5.6c12.1,0,27.3,8.3,37.4,25.1
	c-4.2,3.2-7.2,7.1-8,11.6c-1.2,6.8,3.7,12.6,10.7,13.9c7.7,1.4,14-2.9,15.2-9.4c1-5.9-4.7-12.7-4.4-14.5c0.4-2.5,5.5-9.2,14-9.2
	c14.7,0,21.7,12.7,21,32l-0.2,4.8c-43.6,10.8-56.2,25-56.2,41.1c0,11.2,10.3,21.8,23.6,21.8c11.9,0,21.8-8.9,31.4-19.7l0.2,0.2
	c1.6,12.4,7.2,17.4,18,17.4h91.6l0,0l-2.2-3.3c-10.5-1-27.8-2.9-27.8-12.9V71.2c5.9-22.1,13.6-33.6,22-34.8
	c1.5,9.6,7.8,16.2,17,16.2c5.6-0.1,10.7-3.2,13.2-8.2l0,0l0.1-0.2l0,0c7.8-14.9,12.5-17.1,19-18c14.5-2,23.6,7.8,22.9,27l-0.2,7.1
	C302.1,71,289.5,86,289.5,102c0,11.2,10.3,21.8,23.6,21.8c11.9,0,21.8-8.9,31.4-19.7l0.2,0.2c0.1,0.5,0.2,0.9,0.2,1.3l0,0
	c0,0.2,0.1,0.4,0.1,0.7c0.2,0.9,0.3,1.8,0.6,2.6c0.1,0.3,0.2,0.7,0.3,1s0.1,0.3,0.1,0.5l0,0c2.5,7.9,7.7,11.4,16.4,11.4L396.9,121.8
	z M171.7,98.7c-5,5.3-9.6,10.6-15.3,10.6c-8,0-14-6.9-14-16.5c0-11.7,6.4-20.4,31-26.2L171.7,98.7z M344.3,98.7
	c-5,5.3-9.6,10.6-15.3,10.6c-8,0-14-6.9-14-16.5c0-11.7,6.4-20.4,31-26.2L344.3,98.7z"/>
</svg>
